<svg width="184" height="185" xmlns="http://www.w3.org/2000/svg" xmlns:xlink="http://www.w3.org/1999/xlink" overflow="hidden"><defs><clipPath id="clip0"><rect x="0" y="0" width="184" height="185"/></clipPath></defs><g clip-path="url(#clip0)"><rect x="0" y="0" width="184" height="185.002" fill="#FFFFFF" fill-opacity="0"/><path d="M34.1329 93.0853 91.8856 151.662 150.063 93.2177C150.063 93.2177 156.833 96.494 164.289 92.5558 164.289 92.5558 170.372 88.6507 181 93.2177L92.0164 183.002 3.00002 93.0522C3.00002 93.0522 13.0724 88.7169 20.8229 93.0853 20.8229 93.0853 26.4478 96.5602 34.1329 93.0853Z" fill-rule="evenodd" fill="rgba(200,200,200,1)"/><path d="M105 15.0002C105 22.1799 99.4036 28.0003 92.5 28.0003 85.5964 28.0003 80 22.1799 80 15.0002 80 7.8204 85.5964 2.00007 92.5 2.00007 99.4036 2.00007 105 7.8204 105 15.0002Z" fill-rule="evenodd" fill="rgba(200,200,200,1)"/><path d="M102.337 21.8196 161 172.822C161 172.822 157.708 171.445 150.959 155.581L132.031 111.202C132.031 111.202 121.266 85.0458 107.011 84.6197L92.0988 47.4837 76.6594 85.5702C76.6594 85.5702 63.7877 85.3736 51.9365 111.693L33.8636 154.336C33.8636 154.336 25.7982 172.33 23 174.002L58.751 82.0631 82.6837 21.0002 102.337 21.8196Z" fill-rule="evenodd" fill="rgba(200,200,200,1)"/></g></svg>