<svg width="184" height="180" xmlns="http://www.w3.org/2000/svg" xmlns:xlink="http://www.w3.org/1999/xlink" overflow="hidden"><defs><clipPath id="clip0"><rect x="0" y="0" width="184" height="180"/></clipPath></defs><g clip-path="url(#clip0)"><rect x="0" y="0" width="184" height="179.824" fill="#FFFFFF" fill-opacity="0"/><path d="M122.85 8.74758C105.457 9.8408 103.554 11.4805 103.554 21.5922 136.984 22.6853 184.003 38.2627 184.003 87.7279 184.003 138.013 135.897 155.777 103.554 156.324 103.554 168.622 105.728 169.988 122.85 171.081L122.85 179.826 61.1549 179.826 61.1549 171.081C78.2776 169.988 80.4518 168.622 80.4518 156.324 48.9246 155.777 0.00280417 139.38 0.00280417 89.641 0.00280417 40.4491 47.2938 22.9586 80.4518 21.5922 80.4518 11.4805 78.2776 9.8408 62.7857 8.74758L62.7857 0.00238583 122.85 0.00238583 122.85 8.74758ZM80.4518 31.7039C57.35 32.797 25.8225 46.1881 25.8225 87.4546 25.8225 129.814 56.8064 144.572 80.4518 146.212L80.4518 31.7039ZM103.554 146.212C126.656 144.572 158.454 131.181 158.454 88.8212 158.454 46.1881 126.656 32.797 103.554 31.7039L103.554 146.212 103.554 146.212Z" fill-rule="evenodd" fill="rgba(200,200,200,1)"/></g></svg>